<svg width="8" height="8" viewBox="0 0 8 8" fill="none" xmlns="http://www.w3.org/2000/svg">
<g clip-path="url(#clip0_1322_3577)">
<path d="M6.66668 4.33332C6.66668 5.99999 5.50001 6.83332 4.11334 7.31665C4.04073 7.34126 3.96186 7.34008 3.89001 7.31332C2.50001 6.83332 1.33334 5.99999 1.33334 4.33332V1.99999C1.33334 1.91158 1.36846 1.8268 1.43097 1.76428C1.49349 1.70177 1.57827 1.66665 1.66668 1.66665C2.33334 1.66665 3.16668 1.26665 3.74668 0.759987C3.8173 0.699653 3.90713 0.666504 4.00001 0.666504C4.09289 0.666504 4.18273 0.699653 4.25334 0.759987C4.83668 1.26999 5.66668 1.66665 6.33334 1.66665C6.42175 1.66665 6.50653 1.70177 6.56905 1.76428C6.63156 1.8268 6.66668 1.91158 6.66668 1.99999V4.33332Z" stroke="#2563EB" stroke-linecap="round" stroke-linejoin="round"/>
</g>
<defs>
<clipPath id="clip0_1322_3577">
<rect width="8" height="8" fill="white"/>
</clipPath>
</defs>
</svg>
