<svg width="46" height="46" viewBox="0 0 46 46" fill="none" xmlns="http://www.w3.org/2000/svg">
<rect x="3" y="3" width="40" height="40" rx="20" fill="#F5F5F5"/>
<rect x="3" y="3" width="40" height="40" rx="20" stroke="#FAFAFA" stroke-width="6"/>
<g clip-path="url(#clip0_957_2428)">
<path d="M26.3333 26.3334L23 23M23 23L19.6666 26.3334M23 23V30.5M29.9916 28.325C30.8044 27.8819 31.4465 27.1808 31.8165 26.3322C32.1866 25.4837 32.2635 24.5361 32.0351 23.6389C31.8068 22.7418 31.2862 21.9463 30.5555 21.3779C29.8248 20.8095 28.9257 20.5006 28 20.5H26.95C26.6977 19.5244 26.2276 18.6186 25.5749 17.8509C24.9222 17.0831 24.104 16.4732 23.1817 16.0672C22.2594 15.6612 21.2571 15.4695 20.2501 15.5066C19.243 15.5437 18.2575 15.8086 17.3676 16.2814C16.4777 16.7542 15.7066 17.4226 15.1122 18.2363C14.5177 19.0501 14.1155 19.988 13.9358 20.9795C13.756 21.9711 13.8034 22.9905 14.0743 23.9611C14.3452 24.9317 14.8327 25.8282 15.5 26.5834" stroke="#535862" stroke-width="1.66667" stroke-linecap="round" stroke-linejoin="round"/>
</g>
<defs>
<clipPath id="clip0_957_2428">
<rect width="20" height="20" fill="white" transform="translate(13 13)"/>
</clipPath>
</defs>
</svg>
